<svg xmlns="http://www.w3.org/2000/svg" xmlns:xlink="http://www.w3.org/1999/xlink" width="152" height="112" viewBox="0 0 152 112">
  <defs>
    <clipPath id="clip-path">
      <rect id="長方形_8748" data-name="長方形 8748" width="76" height="52.618" transform="translate(0 0)" fill="#727981"/>
    </clipPath>
  </defs>
  <g id="icon_prepaid" transform="translate(-164 -320)">
    <rect id="長方形_7035" data-name="長方形 7035" width="152" height="112" transform="translate(164 320)" fill="#727981" opacity="0.001"/>
    <g id="グループ_19277" data-name="グループ 19277" transform="translate(202 354)">
      <g id="グループ_19276" data-name="グループ 19276" clip-path="url(#clip-path)">
        <path id="パス_28849" data-name="パス 28849" d="M64.708,20.629c1.139,0,2.239.052,3.294.148V2.834A2.834,2.834,0,0,0,65.168,0H2.833A2.833,2.833,0,0,0,0,2.834V39.668A2.833,2.833,0,0,0,2.833,42.5H48.6V28.8c0-.025.007-.049.008-.075s-.008-.055-.008-.083c0-4.644,6.772-8.015,16.1-8.015m-45.99,11.3H8.8V29.1h9.917Zm13.494,0H22.3V29.1h9.917Zm13.495,0H35.79V29.1h9.917Z" fill="#727981"/>
        <path id="パス_28850" data-name="パス 28850" d="M51.417,30.9v4.07c0,2.8,5.513,5.078,12.291,5.078S76,37.771,76,34.971V30.9c-1.363,2.347-6.292,4.015-12.292,4.015S52.78,33.248,51.417,30.9" fill="#727981"/>
        <path id="パス_28851" data-name="パス 28851" d="M63.708,41.2c-6,0-10.928-1.668-12.291-4.015v4.07c0,2.8,5.513,5.078,12.291,5.078S76,44.056,76,41.256v-4.07C74.638,39.533,69.708,41.2,63.708,41.2" fill="#727981"/>
        <path id="パス_28852" data-name="パス 28852" d="M63.708,47.485c-6,0-10.928-1.668-12.291-4.015v4.07c0,2.8,5.513,5.078,12.291,5.078S76,50.34,76,47.54V43.47c-1.362,2.347-6.292,4.015-12.292,4.015" fill="#727981"/>
        <path id="パス_28853" data-name="パス 28853" d="M51.417,28.426c0,2.9,5.5,5.255,12.292,5.255S76,31.328,76,28.426s-5.5-5.255-12.291-5.255-12.292,2.353-12.292,5.255" fill="#727981"/>
      </g>
    </g>
  </g>
</svg>
