<svg xmlns="http://www.w3.org/2000/svg" xmlns:xlink="http://www.w3.org/1999/xlink" width="120" height="120" viewBox="0 0 120 120">
  <defs>
    <linearGradient id="linear-gradient" x1="0.5" x2="0.5" y2="1" gradientUnits="objectBoundingBox">
      <stop offset="0" stop-color="#145fe3"/>
      <stop offset="1" stop-color="#001cba"/>
    </linearGradient>
    <clipPath id="clip-path">
      <rect id="長方形_8426" data-name="長方形 8426" width="120" height="120" fill="url(#linear-gradient)"/>
    </clipPath>
  </defs>
  <g id="icon_done" transform="translate(-688 -258)">
    <rect id="長方形_8427" data-name="長方形 8427" width="120" height="120" transform="translate(688 258)" fill="#26282b" opacity="0"/>
    <g id="グループ_18801" data-name="グループ 18801" transform="translate(688 258)">
      <g id="グループ_18800" data-name="グループ 18800" clip-path="url(#clip-path)">
        <g id="グループ_18799" data-name="グループ 18799" opacity="0">
          <g id="グループ_18798" data-name="グループ 18798">
            <g id="グループ_18797" data-name="グループ 18797" clip-path="url(#clip-path)">
              <rect id="長方形_8424" data-name="長方形 8424" width="120" height="120" fill="url(#linear-gradient)"/>
            </g>
          </g>
        </g>
        <path id="パス_28830" data-name="パス 28830" d="M39.431,57.989l-.032-.031a6.026,6.026,0,0,0-8.337.023,5.9,5.9,0,0,0-1.756,4.083,5.5,5.5,0,0,0,1.611,4.28L47.826,83.392c.061.064.124.127.186.186A5.486,5.486,0,0,0,51.819,85.1l.137,0a5.461,5.461,0,0,0,3.84-1.686l57.688-57.688c.1-.092.194-.188.282-.284a5.868,5.868,0,0,0-.286-8.287,6.088,6.088,0,0,0-4.15-1.653h-.036a5.761,5.761,0,0,0-4.143,1.688L51.827,70.515Z" fill="url(#linear-gradient)"/>
        <path id="パス_28831" data-name="パス 28831" d="M116.727,53.912a57.287,57.287,0,0,0-.844-5.777c-.021-.134-.046-.266-.076-.4a5.737,5.737,0,0,0-6.819-4.317,4.832,4.832,0,0,0-3.537,2.554,6.715,6.715,0,0,0-.7,4.392,31.811,31.811,0,0,1,.729,4.638c.135,1.617.2,3.3.2,5.011,0,12.937-4.4,23.9-13.089,32.585S72.945,105.69,60.008,105.69s-23.9-4.4-32.587-13.089S14.333,72.953,14.333,60.016s4.4-23.9,13.088-32.583S47.07,14.346,60.011,14.346h.1a47.282,47.282,0,0,1,13.215,1.882,46.15,46.15,0,0,1,12.075,5.5,6.544,6.544,0,0,0,4.142,1.08,5.3,5.3,0,0,0,3.8-2.047,5.044,5.044,0,0,0,1.092-4.329,5.457,5.457,0,0,0-2.5-3.575,57.4,57.4,0,0,0-72.53,6.7A55.387,55.387,0,0,0,7.348,37.672a59.778,59.778,0,0,0,0,44.834A55.556,55.556,0,0,0,37.515,112.67a57.45,57.45,0,0,0,21.962,4.347H60a57.156,57.156,0,0,0,22.365-4.342,55.4,55.4,0,0,0,18.114-12.053,57.182,57.182,0,0,0,16.536-40.6c0-2.072-.1-4.127-.284-6.107" fill="url(#linear-gradient)"/>
      </g>
    </g>
  </g>
</svg>
