<svg id="icon_enter" xmlns="http://www.w3.org/2000/svg" xmlns:xlink="http://www.w3.org/1999/xlink" width="32" height="32" viewBox="0 0 32 32">
  <defs>
    <clipPath id="clip-path">
      <rect id="長方形_7573" data-name="長方形 7573" width="32" height="32" fill="none"/>
    </clipPath>
    <clipPath id="clip-path-4">
      <rect id="長方形_7572" data-name="長方形 7572" width="30" height="30" transform="translate(1 1)" fill="none"/>
    </clipPath>
  </defs>
  <g id="グループ_17656" data-name="グループ 17656" clip-path="url(#clip-path)">
    <g id="グループ_17653" data-name="グループ 17653">
      <g id="グループ_17652" data-name="グループ 17652" opacity="0" clip-path="url(#clip-path)">
        <g id="グループ_17651" data-name="グループ 17651" opacity="0.1">
          <g id="グループ_17650" data-name="グループ 17650">
            <g id="グループ_17649" data-name="グループ 17649" clip-path="url(#clip-path)">
              <rect id="長方形_7569" data-name="長方形 7569" width="32" height="32"/>
            </g>
          </g>
        </g>
      </g>
    </g>
    <g id="グループ_17655" data-name="グループ 17655">
      <g id="グループ_17654" data-name="グループ 17654" clip-path="url(#clip-path-4)">
        <path id="パス_28521" data-name="パス 28521" d="M13.9,18.7,10.678,15.48a1.427,1.427,0,0,0-1.051-.412,1.486,1.486,0,0,0-1.05,2.514l4.276,4.276a1.45,1.45,0,0,0,2.051.049c.017-.016.033-.032.049-.049L23.43,13.38a1.486,1.486,0,0,0-2.1-2.1ZM16,31a14.622,14.622,0,0,1-5.852-1.181,14.985,14.985,0,0,1-7.971-7.971A14.616,14.616,0,0,1,1,16a14.6,14.6,0,0,1,1.181-5.847,14.971,14.971,0,0,1,7.971-7.971A14.6,14.6,0,0,1,16,1a14.6,14.6,0,0,1,5.852,1.182,14.971,14.971,0,0,1,7.971,7.971A14.616,14.616,0,0,1,31.008,16a14.622,14.622,0,0,1-1.181,5.852,14.985,14.985,0,0,1-7.971,7.971A14.624,14.624,0,0,1,16,31.009" fill="#fff"/>
      </g>
    </g>
  </g>
</svg>
