<svg xmlns="http://www.w3.org/2000/svg" xmlns:xlink="http://www.w3.org/1999/xlink" width="48" height="48" viewBox="0 0 48 48">
  <defs>
    <clipPath id="clip-path">
      <rect id="長方形_7960" data-name="長方形 7960" width="48" height="48" transform="translate(-0.309)" fill="rgba(0,0,0,0)" opacity="0"/>
    </clipPath>
    <clipPath id="clip-path-3">
      <rect id="長方形_7957" data-name="長方形 7957" width="48" height="48" transform="translate(-0.309)" fill="none"/>
    </clipPath>
    <clipPath id="clip-path-4">
      <rect id="長方形_7959" data-name="長方形 7959" width="48" height="48" transform="translate(-0.309)" fill="#727981"/>
    </clipPath>
  </defs>
  <g id="icon_expansion" transform="translate(0.309)">
    <g id="グループ_18144" data-name="グループ 18144" clip-path="url(#clip-path)">
      <g id="グループ_18141" data-name="グループ 18141">
        <g id="グループ_18140" data-name="グループ 18140" clip-path="url(#clip-path)">
          <g id="グループ_18139" data-name="グループ 18139" opacity="0.1">
            <g id="グループ_18138" data-name="グループ 18138">
              <g id="グループ_18137" data-name="グループ 18137" clip-path="url(#clip-path-3)">
                <rect id="長方形_7956" data-name="長方形 7956" width="48" height="48" transform="translate(-0.309)" fill="none"/>
              </g>
            </g>
          </g>
        </g>
      </g>
      <g id="グループ_18143" data-name="グループ 18143">
        <g id="グループ_18142" data-name="グループ 18142" clip-path="url(#clip-path-4)">
          <path id="パス_28542" data-name="パス 28542" d="M16.048,20.078a1.362,1.362,0,0,0-2.3-.963l-3.3,3.3v-2.2a1.385,1.385,0,0,0-2.355-.979,1.331,1.331,0,0,0-.4.979v5.5a1.354,1.354,0,0,0,1.376,1.376h5.5a1.376,1.376,0,1,0,0-2.751h-2.2l3.3-3.3a1.3,1.3,0,0,0,.379-.963" transform="translate(3.771 9.188)" fill="#727981"/>
          <path id="パス_28543" data-name="パス 28543" d="M25.679,18.84A1.349,1.349,0,0,0,24.3,20.215v2.2l-3.3-3.3a1.362,1.362,0,0,0-1.927,1.926l3.3,3.3h-2.2a1.376,1.376,0,1,0,0,2.753h5.5a1.352,1.352,0,0,0,1.376-1.377v-5.5a1.349,1.349,0,0,0-1.376-1.376" transform="translate(9.168 9.188)" fill="#727981"/>
          <path id="パス_28544" data-name="パス 28544" d="M12.367,10.48h2.2a1.376,1.376,0,1,0,0-2.751h-5.5A1.349,1.349,0,0,0,7.69,9.1v5.5a1.387,1.387,0,0,0,2.356.981,1.33,1.33,0,0,0,.395-.981v-2.2l3.3,3.3a1.362,1.362,0,0,0,1.924-1.927Z" transform="translate(3.771 3.79)" fill="#727981"/>
          <path id="パス_28545" data-name="パス 28545" d="M25.679,7.729h-5.5a1.387,1.387,0,0,0-.981,2.356,1.33,1.33,0,0,0,.981.395h2.2l-3.3,3.3A1.362,1.362,0,0,0,21,15.708l3.3-3.3v2.2a1.376,1.376,0,1,0,2.751,0V9.1a1.349,1.349,0,0,0-1.376-1.376" transform="translate(9.168 3.79)" fill="#727981"/>
          <path id="パス_28546" data-name="パス 28546" d="M35.639,4.036H8.125A4.131,4.131,0,0,0,4,8.163V35.677A4.131,4.131,0,0,0,8.125,39.8H35.639a4.131,4.131,0,0,0,4.127-4.127V8.163a4.131,4.131,0,0,0-4.127-4.127m1.376,31.641a1.377,1.377,0,0,1-1.376,1.376H8.125a1.378,1.378,0,0,1-1.376-1.376V8.163A1.379,1.379,0,0,1,8.125,6.787H35.639a1.378,1.378,0,0,1,1.376,1.376Z" transform="translate(1.96 1.979)" fill="#727981"/>
        </g>
      </g>
    </g>
  </g>
</svg>
