<svg xmlns="http://www.w3.org/2000/svg" width="72" height="72" viewBox="0 0 72 72">
  <g id="icon_main_returned" transform="translate(-712 -66)">
    <rect id="長方形_8449" data-name="長方形 8449" width="72" height="72" transform="translate(712 66)" fill="#fff" opacity="0"/>
    <g id="グループ_17998" data-name="グループ 17998" transform="translate(-1637.934 -5527.104)">
      <path id="パス_27973" data-name="パス 27973" d="M179,24.926v1.489a3.963,3.963,0,0,0,1.21,2.909,4.285,4.285,0,0,0,.515.43,12.507,12.507,0,0,0,7.842-4.11,11.065,11.065,0,0,0,2.159-4.238c-2.975,2.018-6.9,3.191-11.726,3.52" transform="translate(2197.451 5615.764)" fill="#c832ff"/>
      <path id="パス_27974" data-name="パス 27974" d="M210.745,9.449a3.963,3.963,0,0,0-2.909-1.21h-4.119A7.932,7.932,0,0,0,201.3,2.421a8.2,8.2,0,0,0-11.636,0,7.932,7.932,0,0,0-2.421,5.818h-4.119A4.133,4.133,0,0,0,179,12.358V26.279a2.459,2.459,0,0,1,.98,1.947v2.314c5.688-.613,9.362-2.657,11.2-6.212a2.478,2.478,0,0,1,4.642.709,17.66,17.66,0,0,1-3.445,14.439,15.752,15.752,0,0,1-1.691,1.718h17.152a4.132,4.132,0,0,0,4.119-4.119V12.358a3.963,3.963,0,0,0-1.21-2.909m-19.387,7.028a2.06,2.06,0,1,1-4.119,0V12.358h4.119Zm0-8.239a3.963,3.963,0,0,1,1.21-2.909,4.1,4.1,0,0,1,5.818,0,3.963,3.963,0,0,1,1.21,2.909Zm12.358,8.239a2.06,2.06,0,1,1-4.119,0V12.358h4.119Z" transform="translate(2197.451 5605.104)" fill="#c832ff"/>
      <path id="パス_27975" data-name="パス 27975" d="M169.309,29.788l13.019,10.027V34.7c12.691-.1,17.4-9.061,15.878-17.7-2.774,5.37-8.541,7.484-15.878,7.725V19.761Z" transform="translate(2192.625 5613.57)" fill="#c832ff"/>
      <path id="パス_27976" data-name="パス 27976" d="M169.309,29.788l13.019,10.027V34.7c12.691-.1,17.4-9.061,15.878-17.7-2.774,5.37-8.541,7.484-15.878,7.725V19.761Z" transform="translate(2192.625 5613.57)" fill="#c832ff"/>
    </g>
  </g>
</svg>
