<svg xmlns="http://www.w3.org/2000/svg" xmlns:xlink="http://www.w3.org/1999/xlink" width="56" height="56" viewBox="0 0 56 56">
  <defs>
    <clipPath id="clip-path">
      <rect id="長方形_8675" data-name="長方形 8675" width="32" height="16" fill="none"/>
    </clipPath>
  </defs>
  <g id="icon_bill_10000" transform="translate(-165 -383)">
    <rect id="長方形_8276" data-name="長方形 8276" width="56" height="56" transform="translate(165 383)" fill="#fff" opacity="0"/>
    <g id="グループ_19202" data-name="グループ 19202" transform="translate(177 403)">
      <g id="グループ_19201" data-name="グループ 19201" clip-path="url(#clip-path)">
        <path id="パス_28787" data-name="パス 28787" d="M30.667,0H1.333A1.333,1.333,0,0,0,0,1.333V14.667A1.333,1.333,0,0,0,1.333,16H30.667A1.333,1.333,0,0,0,32,14.667V1.333A1.333,1.333,0,0,0,30.667,0m0,14.667H1.334V1.334H30.667Z" fill="#727981"/>
        <path id="パス_28788" data-name="パス 28788" d="M11.436,5.88a2.271,2.271,0,0,0-.311-.8.686.686,0,0,0-1.16,0,2.309,2.309,0,0,0-.309.8,6.457,6.457,0,0,0-.125,1.05c-.017.38-.026.736-.026,1.07,0,.359.011.73.031,1.109a6.209,6.209,0,0,0,.134,1.036,2.158,2.158,0,0,0,.311.759.648.648,0,0,0,.564.3.662.662,0,0,0,.571-.3,2.087,2.087,0,0,0,.314-.759,6.02,6.02,0,0,0,.131-1.036c.017-.379.024-.75.024-1.109,0-.334-.007-.69-.024-1.07a6.807,6.807,0,0,0-.125-1.05" fill="#727981"/>
        <path id="パス_28789" data-name="パス 28789" d="M21.435,5.88a2.271,2.271,0,0,0-.311-.8.686.686,0,0,0-1.16,0,2.329,2.329,0,0,0-.309.8,6.457,6.457,0,0,0-.125,1.05c-.017.38-.025.736-.025,1.07,0,.359.01.73.03,1.109a6.209,6.209,0,0,0,.134,1.036,2.158,2.158,0,0,0,.311.759.648.648,0,0,0,.564.3.661.661,0,0,0,.571-.3,2.07,2.07,0,0,0,.314-.759,6.02,6.02,0,0,0,.131-1.036c.017-.379.025-.75.025-1.109,0-.334-.008-.69-.025-1.07a6.807,6.807,0,0,0-.125-1.05" fill="#727981"/>
        <path id="パス_28790" data-name="パス 28790" d="M16.435,5.88a2.271,2.271,0,0,0-.311-.8.686.686,0,0,0-1.16,0,2.329,2.329,0,0,0-.309.8,6.457,6.457,0,0,0-.125,1.05c-.017.38-.025.736-.025,1.07,0,.359.01.73.03,1.109a6.209,6.209,0,0,0,.134,1.036,2.158,2.158,0,0,0,.311.759.648.648,0,0,0,.564.3.662.662,0,0,0,.571-.3,2.07,2.07,0,0,0,.314-.759,6.02,6.02,0,0,0,.131-1.036c.017-.379.025-.75.025-1.109,0-.334-.008-.69-.025-1.07a6.807,6.807,0,0,0-.125-1.05" fill="#727981"/>
        <path id="パス_28791" data-name="パス 28791" d="M26.435,5.88a2.271,2.271,0,0,0-.311-.8.686.686,0,0,0-1.16,0,2.329,2.329,0,0,0-.309.8,6.457,6.457,0,0,0-.125,1.05c-.017.38-.025.736-.025,1.07,0,.359.01.73.03,1.109a6.209,6.209,0,0,0,.134,1.036,2.158,2.158,0,0,0,.311.759.648.648,0,0,0,.564.3.661.661,0,0,0,.571-.3,2.07,2.07,0,0,0,.314-.759,6.02,6.02,0,0,0,.131-1.036c.017-.379.025-.75.025-1.109,0-.334-.008-.69-.025-1.07a6.807,6.807,0,0,0-.125-1.05" fill="#727981"/>
        <path id="パス_28792" data-name="パス 28792" d="M30,2H2V14H30ZM6.7,12.08H5.586V4.96h-1.2V3.92H6.7Zm5.83-2.41a5.138,5.138,0,0,1-.32,1.335,2.123,2.123,0,0,1-.635.885,1.6,1.6,0,0,1-1.025.32,1.563,1.563,0,0,1-1.02-.325,2.211,2.211,0,0,1-.635-.89A5.022,5.022,0,0,1,8.565,9.66a14.232,14.232,0,0,1-.09-1.65A13.2,13.2,0,0,1,8.57,6.38,5.266,5.266,0,0,1,8.9,5.035a2.278,2.278,0,0,1,.635-.91,1.514,1.514,0,0,1,1.01-.335,1.53,1.53,0,0,1,1.02.335,2.24,2.24,0,0,1,.63.91A5.4,5.4,0,0,1,12.52,6.38a13.2,13.2,0,0,1,.095,1.63,14.116,14.116,0,0,1-.09,1.66m5,0a5.138,5.138,0,0,1-.32,1.335,2.123,2.123,0,0,1-.635.885,1.6,1.6,0,0,1-1.025.32,1.563,1.563,0,0,1-1.02-.325,2.211,2.211,0,0,1-.635-.89,5.022,5.022,0,0,1-.325-1.335,14.232,14.232,0,0,1-.09-1.65,13.2,13.2,0,0,1,.095-1.63,5.266,5.266,0,0,1,.33-1.345,2.278,2.278,0,0,1,.635-.91,1.514,1.514,0,0,1,1.01-.335,1.53,1.53,0,0,1,1.02.335,2.24,2.24,0,0,1,.63.91A5.4,5.4,0,0,1,17.52,6.38a13.2,13.2,0,0,1,.095,1.63,14.116,14.116,0,0,1-.09,1.66m5,0a5.138,5.138,0,0,1-.32,1.335,2.123,2.123,0,0,1-.635.885,1.6,1.6,0,0,1-1.025.32,1.563,1.563,0,0,1-1.02-.325,2.211,2.211,0,0,1-.635-.89,5.022,5.022,0,0,1-.325-1.335,14.232,14.232,0,0,1-.09-1.65,13.2,13.2,0,0,1,.095-1.63,5.266,5.266,0,0,1,.33-1.345,2.278,2.278,0,0,1,.635-.91,1.514,1.514,0,0,1,1.01-.335,1.53,1.53,0,0,1,1.02.335,2.24,2.24,0,0,1,.63.91A5.4,5.4,0,0,1,22.52,6.38a13.2,13.2,0,0,1,.095,1.63,14.116,14.116,0,0,1-.09,1.66m5,0a5.138,5.138,0,0,1-.32,1.335,2.123,2.123,0,0,1-.635.885,1.6,1.6,0,0,1-1.025.32,1.563,1.563,0,0,1-1.02-.325,2.211,2.211,0,0,1-.635-.89,5.022,5.022,0,0,1-.325-1.335,14.232,14.232,0,0,1-.09-1.65,13.2,13.2,0,0,1,.095-1.63,5.266,5.266,0,0,1,.33-1.345,2.278,2.278,0,0,1,.635-.91,1.514,1.514,0,0,1,1.01-.335,1.53,1.53,0,0,1,1.02.335,2.24,2.24,0,0,1,.63.91A5.4,5.4,0,0,1,27.52,6.38a13.2,13.2,0,0,1,.095,1.63,14.116,14.116,0,0,1-.09,1.66" fill="#727981"/>
      </g>
    </g>
  </g>
</svg>
