<svg xmlns="http://www.w3.org/2000/svg" xmlns:xlink="http://www.w3.org/1999/xlink" width="36" height="24" viewBox="0 0 36 24">
  <defs>
    <clipPath id="clip-path">
      <rect id="長方形_7319" data-name="長方形 7319" width="23.75" height="16.549" fill="#fff"/>
    </clipPath>
  </defs>
  <g id="icon_membership" transform="translate(-4 -66)">
    <rect id="長方形_8698" data-name="長方形 8698" width="36" height="24" transform="translate(4 66)" fill="#fff" opacity="0"/>
    <g id="グループ_17405" data-name="グループ 17405" transform="translate(10 70)">
      <g id="グループ_17404" data-name="グループ 17404" transform="translate(0 0)" clip-path="url(#clip-path)">
        <path id="パス_28428" data-name="パス 28428" d="M21.15,0H2.6A2.6,2.6,0,0,0,0,2.6V13.949a2.6,2.6,0,0,0,2.6,2.6H21.15a2.6,2.6,0,0,0,2.6-2.6V2.6A2.6,2.6,0,0,0,21.15,0m-9.1,12.485a.432.432,0,0,1-.433.433h-8.2a.433.433,0,0,1-.433-.433v-.911c0-.778.921-1.244,1.026-1.294L5.8,9.567A3.29,3.29,0,0,1,4.645,6.92a3.119,3.119,0,0,1,2.84-3.283A3.14,3.14,0,0,1,10.4,6.97,3.244,3.244,0,0,1,9.239,9.564l1.763.7c.125.056,1.052.505,1.052,1.305Zm7.6-.961h-5.72a.433.433,0,1,1,0-.867h5.72a.433.433,0,0,1,0,.867m0-2.854h-5.72a.433.433,0,0,1,0-.867h5.72a.433.433,0,0,1,0,.867m0-2.854h-5.72a.433.433,0,0,1,0-.867h5.72a.433.433,0,0,1,0,.867" transform="translate(0 0)" fill="#fff"/>
      </g>
    </g>
  </g>
</svg>
