<!--
  - (C)2023 TERAOKA SEIKO Co., Ltd./株式会社寺岡精工
  - CONFIDENTIAL/社外秘
  - 無断開示・無断複製禁止
  -->

<svg id="icon_open" xmlns="http://www.w3.org/2000/svg" xmlns:xlink="http://www.w3.org/1999/xlink" width="32" height="32" viewBox="0 0 32 32">
  <defs>
    <clipPath id="clip-path">
      <rect id="長方形_6520" data-name="長方形 6520" width="32" height="32" fill="none"/>
    </clipPath>
  </defs>
  <g id="グループ_15631" data-name="グループ 15631" clip-path="url(#clip-path)">
    <path id="パス_27983" data-name="パス 27983" d="M10.454,26.108a1.712,1.712,0,0,1-.391-1.009,1.245,1.245,0,0,1,.391-.965l8.088-8.087L10.408,7.912a1.265,1.265,0,0,1-.345-.988,1.424,1.424,0,0,1,.391-.988,1.3,1.3,0,0,1,.989-.437,1.385,1.385,0,0,1,.941.437l9.145,9.144a1.4,1.4,0,0,1,.321.459,1.42,1.42,0,0,1,0,1.011,1.4,1.4,0,0,1-.321.459l-9.1,9.1a1.248,1.248,0,0,1-.966.39,1.7,1.7,0,0,1-1.011-.391" fill="#fff"/>
  </g>
</svg>
