<svg xmlns="http://www.w3.org/2000/svg" width="80" height="48" viewBox="0 0 80 48">
  <g id="icon_emoney" transform="translate(-896 -184)">
    <rect id="長方形_6866" data-name="長方形 6866" width="80" height="48" transform="translate(896 184)" fill="gray" opacity="0"/>
    <g id="グループ_16530" data-name="グループ 16530" transform="translate(18851.799 -3633.558)">
      <path id="パス_28169" data-name="パス 28169" d="M343.831,18.891H314.422a1.337,1.337,0,0,0-1.337,1.337V37.606a1.338,1.338,0,0,0,1.337,1.337h29.409a1.338,1.338,0,0,0,1.337-1.337V20.228a1.337,1.337,0,0,0-1.337-1.337m.158,11.957-6.928,6.758h-22.8V26.986l6.928-6.758h22.8Z" transform="translate(-18232 3822.558)" fill="#727981"/>
      <path id="パス_28257" data-name="パス 28257" d="M0,0H1.986V7.559H0Z" transform="translate(-17907.723 3847.695)" fill="#727981"/>
      <path id="パス_28170" data-name="パス 28170" d="M333.976,27.663a2.128,2.128,0,0,0-1.7-.832,2.1,2.1,0,0,0-.825.16,2.026,2.026,0,0,0-.654.436,2,2,0,0,0-.431.657,2.13,2.13,0,0,0-.157.822,2.155,2.155,0,0,0,.157.832,2.031,2.031,0,0,0,1.9,1.263,2.31,2.31,0,0,0,1.713-.8v2.326l-.2.071a5.993,5.993,0,0,1-.851.235,4.177,4.177,0,0,1-.78.075,4,4,0,0,1-2.792-1.128,4.139,4.139,0,0,1-.887-1.273,4.046,4.046,0,0,1-.005-3.208,3.959,3.959,0,0,1,.882-1.253,4.077,4.077,0,0,1,2.812-1.118,4.188,4.188,0,0,1,.9.095,5.5,5.5,0,0,1,.928.3Z" transform="translate(-18232 3822.558)" fill="#727981"/>
      <path id="パス_28171" data-name="パス 28171" d="M318.2,0h-28a2,2,0,0,0-2,2V36h2V6.394h28l.026,10.488,1.974,0V2a2,2,0,0,0-2-2M307.063,3.816h-5.724a.5.5,0,0,1,0-1h5.724a.5.5,0,0,1,0,1" transform="translate(-18232 3822.558)" fill="#727981"/>
      <path id="パス_28172" data-name="パス 28172" d="M314.852,14.035h-21.3a.969.969,0,0,0-.968.968V27.591a.969.969,0,0,0,.968.968h17.559v-2.1l-1.161,1.133H293.436V19.9l5.018-4.9h16.513v1.9l.853,0V15a.968.968,0,0,0-.968-.968" transform="translate(-18232 3822.558)" fill="#727981"/>
    </g>
  </g>
</svg>
