<svg xmlns="http://www.w3.org/2000/svg" width="32" height="32" viewBox="0 0 32 32">
  <g id="icon_open_2" transform="translate(-400 -340)">
    <path id="パス_28533" data-name="パス 28533" d="M10.353,20.876a1.277,1.277,0,0,1-.292-.753.929.929,0,0,1,.292-.72l6.035-6.034L10.319,7.3a.944.944,0,0,1-.257-.737,1.062,1.062,0,0,1,.292-.737.971.971,0,0,1,.738-.326,1.033,1.033,0,0,1,.7.326l6.823,6.823a1.045,1.045,0,0,1,.24.342,1.06,1.06,0,0,1,0,.754,1.045,1.045,0,0,1-.24.342l-6.79,6.79a.931.931,0,0,1-.721.291,1.27,1.27,0,0,1-.754-.292" transform="translate(401.942 342.502)" fill="#fff"/>
    <rect id="長方形_7881" data-name="長方形 7881" width="32" height="32" transform="translate(400 340)" fill="none"/>
  </g>
</svg>
