<svg xmlns="http://www.w3.org/2000/svg" xmlns:xlink="http://www.w3.org/1999/xlink" width="56" height="56" viewBox="0 0 56 56">
  <defs>
    <clipPath id="clip-path">
      <rect id="長方形_8278" data-name="長方形 8278" width="31" height="31" transform="translate(0.291 0.385)" fill="none"/>
    </clipPath>
  </defs>
  <g id="icon_coin_large" transform="translate(-624 -321)">
    <rect id="長方形_8276" data-name="長方形 8276" width="56" height="56" transform="translate(624 321)" fill="#fff" opacity="0"/>
    <g id="グループ_18930" data-name="グループ 18930" transform="translate(636.709 333.615)">
      <g id="グループ_18929" data-name="グループ 18929" transform="translate(0 0)" clip-path="url(#clip-path)">
        <path id="パス_28675" data-name="パス 28675" d="M15.5,0A15.5,15.5,0,1,0,31,15.5,15.5,15.5,0,0,0,15.5,0m0,29.066A13.564,13.564,0,1,1,29.066,15.5,13.58,13.58,0,0,1,15.5,29.066" transform="translate(0.381 0.382)" fill="#727981"/>
        <path id="パス_28676" data-name="パス 28676" d="M14.355,2.146A12.176,12.176,0,1,0,26.628,14.321,12.237,12.237,0,0,0,14.355,2.146m4.119,7.083-2.8,4.409h2.1a.684.684,0,1,1,0,1.367H15.039v1.367h2.734a.684.684,0,1,1,0,1.367H15.039V19.79a.684.684,0,1,1-1.367,0V17.739H10.937a.684.684,0,1,1,0-1.367h2.734V15H10.937a.684.684,0,1,1,0-1.367h2.1l-2.8-4.426a.627.627,0,0,1-.025-.693.65.65,0,0,1,.606-.35.7.7,0,0,1,.343.087.6.6,0,0,1,.239.239l2.956,4.666,2.956-4.666a.6.6,0,0,1,.24-.239.684.684,0,0,1,.341-.087.65.65,0,0,1,.608.36.639.639,0,0,1-.026.7" transform="translate(1.528 1.562)" fill="#727981"/>
      </g>
    </g>
  </g>
</svg>
