<svg xmlns="http://www.w3.org/2000/svg" xmlns:xlink="http://www.w3.org/1999/xlink" width="32" height="32" viewBox="0 0 32 32">
  <defs>
    <clipPath id="clip-path">
      <rect id="長方形_8728" data-name="長方形 8728" width="24" height="24" transform="translate(0 0)" fill="#45494e"/>
    </clipPath>
  </defs>
  <g id="icon_sidebar_langeage" transform="translate(-772 -668)">
    <g id="グループ_18745" data-name="グループ 18745" transform="translate(564)" opacity="0">
      <path id="パス_28697" data-name="パス 28697" d="M0,0H32V32H0Z" transform="translate(208 668)" fill="none" opacity="1"/>
    </g>
    <g id="グループ_19259" data-name="グループ 19259" transform="translate(776 672)" clip-path="url(#clip-path)">
      <path id="パス_28693" data-name="パス 28693" d="M11.965,23.93a11.557,11.557,0,0,1-4.636-.943A12.044,12.044,0,0,1,.942,16.6,11.577,11.577,0,0,1,0,11.965,11.541,11.541,0,0,1,.942,7.314,12.083,12.083,0,0,1,7.329.943,11.557,11.557,0,0,1,11.965,0a11.522,11.522,0,0,1,4.651.943,12.125,12.125,0,0,1,6.371,6.371,11.542,11.542,0,0,1,.943,4.651,11.578,11.578,0,0,1-.943,4.636,12.086,12.086,0,0,1-6.371,6.386,11.522,11.522,0,0,1-4.651.943m0-2.453a15.26,15.26,0,0,0,1.346-2.243,14.142,14.142,0,0,0,.927-2.483H9.692a14.142,14.142,0,0,0,.927,2.483,15.26,15.26,0,0,0,1.346,2.243M8.854,21a16.567,16.567,0,0,1-.943-2.05,17.539,17.539,0,0,1-.672-2.2H3.709a9.932,9.932,0,0,0,2.168,2.6A8.609,8.609,0,0,0,8.854,21m6.222,0a8.6,8.6,0,0,0,2.976-1.645,9.936,9.936,0,0,0,2.169-2.6h-3.53a17.542,17.542,0,0,1-.674,2.2A16.387,16.387,0,0,1,15.076,21M2.692,14.358H6.76c-.06-.4-.105-.793-.134-1.182s-.045-.792-.045-1.211.014-.822.045-1.211S6.7,9.97,6.76,9.572H2.692a10.409,10.409,0,0,0-.225,1.182,9.919,9.919,0,0,0,0,2.422,10.409,10.409,0,0,0,.225,1.182m6.461,0h5.624c.06-.4.1-.793.134-1.182s.045-.792.045-1.211-.016-.822-.045-1.211-.074-.784-.134-1.182H9.153c-.06.4-.105.793-.135,1.182s-.044.792-.044,1.211.014.822.044,1.211.075.784.135,1.182m8.017,0h4.068a10.144,10.144,0,0,0,.224-1.182,9.763,9.763,0,0,0,0-2.422,10.144,10.144,0,0,0-.224-1.182H17.17c.06.4.1.793.134,1.182s.045.792.045,1.211-.016.822-.045,1.211-.074.784-.134,1.182m-.479-7.179h3.53a9.936,9.936,0,0,0-2.169-2.6,8.6,8.6,0,0,0-2.976-1.645,16.387,16.387,0,0,1,.942,2.05,17.542,17.542,0,0,1,.674,2.2m-7,0h4.547A14.142,14.142,0,0,0,13.311,4.7a15.259,15.259,0,0,0-1.346-2.243A15.259,15.259,0,0,0,10.619,4.7a14.142,14.142,0,0,0-.927,2.483m-5.982,0h3.53a17.539,17.539,0,0,1,.672-2.2,16.567,16.567,0,0,1,.943-2.05A8.609,8.609,0,0,0,5.877,4.577a9.932,9.932,0,0,0-2.168,2.6" transform="translate(0.07 0.07)" fill="#45494e"/>
    </g>
  </g>
</svg>
