<svg xmlns="http://www.w3.org/2000/svg" xmlns:xlink="http://www.w3.org/1999/xlink" width="32" height="32" viewBox="0 0 32 32">
  <defs>
    <clipPath id="clip-path">
      <rect id="長方形_7955" data-name="長方形 7955" width="32" height="32" fill="none"/>
    </clipPath>
  </defs>
  <g id="icon_add" transform="translate(-542 -1917)">
    <g id="マスクグループ_17947" data-name="マスクグループ 17947" transform="translate(542 1917)" clip-path="url(#clip-path)">
      <g id="グループ_17944" data-name="グループ 17944">
        <g id="グループ_17943" data-name="グループ 17943" clip-path="url(#clip-path)">
          <g id="グループ_17942" data-name="グループ 17942" opacity="0.1">
            <g id="グループ_17941" data-name="グループ 17941" opacity="0">
              <g id="グループ_17940" data-name="グループ 17940" clip-path="url(#clip-path)">
                <rect id="長方形_7951" data-name="長方形 7951" width="32" height="32"/>
              </g>
            </g>
          </g>
        </g>
      </g>
      <g id="グループ_17946" data-name="グループ 17946">
        <g id="グループ_17945" data-name="グループ 17945" clip-path="url(#clip-path)">
          <path id="パス_28531" data-name="パス 28531" d="M14.987,17.275v5.1a1.087,1.087,0,0,0,.325.8,1.1,1.1,0,0,0,.806.323,1.081,1.081,0,0,0,.8-.323,1.1,1.1,0,0,0,.319-.8v-5.1h5.137a1.079,1.079,0,0,0,.8-.325,1.093,1.093,0,0,0,.324-.806,1.074,1.074,0,0,0-.324-.8,1.1,1.1,0,0,0-.8-.319H17.237v-5.4a1.086,1.086,0,0,0-.325-.8,1.1,1.1,0,0,0-.806-.324,1.078,1.078,0,0,0-.8.324,1.1,1.1,0,0,0-.319.8v5.4H9.625A1.108,1.108,0,0,0,8.5,16.116a.28.28,0,0,0,0,.041,1.073,1.073,0,0,0,.323.8,1.1,1.1,0,0,0,.8.318ZM16.009,31a14.519,14.519,0,0,1-5.831-1.181,15.154,15.154,0,0,1-8-8A14.543,14.543,0,0,1,1,15.982a14.544,14.544,0,0,1,1.181-5.837A15.017,15.017,0,0,1,5.406,5.388a15.384,15.384,0,0,1,4.776-3.206A14.543,14.543,0,0,1,16.018,1a14.544,14.544,0,0,1,5.837,1.181,14.992,14.992,0,0,1,7.963,7.968A14.57,14.57,0,0,1,31,15.991a14.519,14.519,0,0,1-1.181,5.831,15.335,15.335,0,0,1-3.206,4.765,15.161,15.161,0,0,1-4.762,3.225A14.519,14.519,0,0,1,16.009,31" fill="#fff"/>
        </g>
      </g>
    </g>
  </g>
</svg>
