<svg xmlns="http://www.w3.org/2000/svg" xmlns:xlink="http://www.w3.org/1999/xlink" width="48" height="48" viewBox="0 0 48 48">
  <defs>
    <clipPath id="clip-path">
      <rect id="長方形_3813" data-name="長方形 3813" width="10" height="17.68" fill="#fff"/>
    </clipPath>
  </defs>
  <g id="icon_back" transform="translate(-48 -70)">
    <rect id="長方形_7215" data-name="長方形 7215" width="48" height="48" transform="translate(48 70)" fill="#fff" opacity="0"/>
    <g id="グループ_16971" data-name="グループ 16971" transform="translate(-274 -99)">
      <path id="パス_28260" data-name="パス 28260" d="M16,0A16,16,0,1,1,0,16,16,16,0,0,1,16,0Z" transform="translate(330 177)" fill="#45494e"/>
      <g id="グループ_15765" data-name="グループ 15765" transform="translate(350 201.68) rotate(180)">
        <g id="グループ_12726" data-name="グループ 12726" transform="translate(0 0)" clip-path="url(#clip-path)">
          <path id="パス_24310" data-name="パス 24310" d="M.33.33A1.44,1.44,0,0,0,0,1.181a1.046,1.046,0,0,0,.329.812L7.139,8.8.291,15.648A1.063,1.063,0,0,0,0,16.48a1.2,1.2,0,0,0,.329.832,1.094,1.094,0,0,0,.832.367,1.168,1.168,0,0,0,.792-.367l7.7-7.7a1.164,1.164,0,0,0,.27-.387,1.2,1.2,0,0,0,0-.851,1.164,1.164,0,0,0-.27-.387L1.994.33A1.049,1.049,0,0,0,1.181,0,1.434,1.434,0,0,0,.33.33" transform="translate(0 0)" fill="#fff"/>
        </g>
      </g>
    </g>
  </g>
</svg>
