<svg xmlns="http://www.w3.org/2000/svg" xmlns:xlink="http://www.w3.org/1999/xlink" width="32" height="32" viewBox="0 0 32 32">
  <defs>
    <clipPath id="clip-path">
      <rect id="長方形_8730" data-name="長方形 8730" width="20" height="24.691" fill="#96baff"/>
    </clipPath>
  </defs>
  <g id="icon_sidebar_call" transform="translate(-212 -668)">
    <g id="グループ_18741" data-name="グループ 18741" transform="translate(4)" opacity="0">
      <path id="パス_28700" data-name="パス 28700" d="M0,0H32V32H0Z" transform="translate(208 668)" fill="#45494e" opacity="0.22"/>
    </g>
    <g id="グループ_19273" data-name="グループ 19273" transform="translate(218 671.654)">
      <g id="グループ_19272" data-name="グループ 19272" clip-path="url(#clip-path)">
        <path id="パス_28699" data-name="パス 28699" d="M1.235,20.988c-.37,0-.617,0-.864-.37S0,20.123,0,19.753s0-.617.37-.864.494-.37.864-.37H2.469V9.877a6.892,6.892,0,0,1,1.6-4.568A6.893,6.893,0,0,1,8.148,2.716V1.852A1.857,1.857,0,0,1,8.642.494,1.686,1.686,0,0,1,10,0a1.709,1.709,0,0,1,1.852,1.852v.864a7.281,7.281,0,0,1,4.074,2.593,6.892,6.892,0,0,1,1.6,4.568v8.642h1.235c.37,0,.617,0,.864.37s.37.494.37.864,0,.617-.37.864-.494.37-.864.37Zm8.642,3.7a2.242,2.242,0,0,1-1.728-.741,2.437,2.437,0,0,1-.741-1.728h4.938a2.242,2.242,0,0,1-.741,1.728,2.437,2.437,0,0,1-1.728.741" fill="#96baff"/>
      </g>
    </g>
  </g>
</svg>
