<svg xmlns="http://www.w3.org/2000/svg" width="56" height="56" viewBox="0 0 56 56">
  <g id="icon_function_scan_off" transform="translate(-12 -72)">
    <rect id="長方形_6501" data-name="長方形 6501" width="56" height="56" transform="translate(12 72)" fill="#374bba" opacity="0"/>
    <g id="_0616__Scanning" data-name="0616_ Scanning" transform="translate(42.828 102.448)">
      <g id="_06_Payment" data-name="06_Payment" transform="translate(-21.828 -15.448)">
        <path id="_0616__Scanning-2" data-name="0616_ Scanning" d="M37.377,25.358,31.463,7.274a.856.856,0,0,0-.814-.591h-10.5a.857.857,0,0,0-.857.857V17.25a.857.857,0,0,0,.857.857h5.268L26.6,21.875a.858.858,0,0,0,.819.6h2.643L31.23,25.9a.858.858,0,0,0,.811.581h4.521a.857.857,0,0,0,.814-1.124ZM21.005,8.4H21.9v8h-.895ZM28.05,20.761l-.836-2.654h1.363l.9,2.654ZM16.323,7.176a.857.857,0,0,1-1.117.47L.533,1.65A.857.857,0,0,1,1.181.063l14.672,6A.857.857,0,0,1,16.323,7.176Zm0,9.75a.857.857,0,0,1-.47,1.118L1.181,24.039a.846.846,0,0,1-.324.064.857.857,0,0,1-.324-1.651l14.673-6A.859.859,0,0,1,16.323,16.926ZM8.738,7.539v9.025H7.246V7.539Zm3.309,0v9.025h1.492V7.539Zm-2.14,0v9.025h.932V7.539Zm-3.983,0H4.991v9.025h.932Zm-4.3,0v9.025H3.782V7.539Z" transform="translate(0 0)" fill="#fff"/>
      </g>
    </g>
  </g>
</svg>
