<svg xmlns="http://www.w3.org/2000/svg" xmlns:xlink="http://www.w3.org/1999/xlink" width="32" height="32" viewBox="0 0 32 32">
  <defs>
    <clipPath id="clip-path">
      <rect id="長方形_8552" data-name="長方形 8552" width="23.007" height="21.53" fill="#727981"/>
    </clipPath>
  </defs>
  <g id="icon_back" transform="translate(-180 -610)">
    <rect id="長方形_8636" data-name="長方形 8636" width="32" height="32" transform="translate(180 610)" fill="#fff" opacity="0"/>
    <g id="グループ_18939" data-name="グループ 18939" transform="translate(184 615)">
      <g id="グループ_18938" data-name="グループ 18938" transform="translate(0 0)" clip-path="url(#clip-path)">
        <path id="パス_28688" data-name="パス 28688" d="M5.281,21.53a1.477,1.477,0,1,1,0-2.954h9.011A6,6,0,0,0,18.336,17.1a4.672,4.672,0,0,0,1.716-3.693,4.672,4.672,0,0,0-1.716-3.693,6,6,0,0,0-4.045-1.477H4.986l2.807,2.807a1.441,1.441,0,0,1-1.034,2.474,1.4,1.4,0,0,1-1.034-.406L.406,7.792a1.278,1.278,0,0,1-.313-.48,1.7,1.7,0,0,1,0-1.108,1.278,1.278,0,0,1,.313-.48L5.724.406A1.4,1.4,0,0,1,6.758,0,1.39,1.39,0,0,1,8.2,1.44a1.4,1.4,0,0,1-.406,1.034L4.986,5.281h9.306A8.836,8.836,0,0,1,20.44,7.608a7.5,7.5,0,0,1,2.567,5.8,7.5,7.5,0,0,1-2.567,5.8,8.836,8.836,0,0,1-6.148,2.327Z" transform="translate(0 0)" fill="#727981"/>
      </g>
    </g>
  </g>
</svg>
