<svg xmlns="http://www.w3.org/2000/svg" xmlns:xlink="http://www.w3.org/1999/xlink" width="56" height="56" viewBox="0 0 56 56">
  <defs>
    <clipPath id="clip-path">
      <rect id="長方形_8676" data-name="長方形 8676" width="38.783" height="22.805" transform="translate(0 0)" fill="none"/>
    </clipPath>
  </defs>
  <g id="icon_bill_coin" transform="translate(-165 -559)">
    <rect id="長方形_8276" data-name="長方形 8276" width="56" height="56" transform="translate(165 559)" fill="#fff" opacity="0"/>
    <g id="グループ_19206" data-name="グループ 19206" transform="translate(174 576)">
      <g id="グループ_19205" data-name="グループ 19205" clip-path="url(#clip-path)">
        <path id="パス_28793" data-name="パス 28793" d="M30,8.012V2H2V14H24a8,8,0,0,1,6-5.988m-11.343-3.3L16.849,7.559H18.2a.441.441,0,1,1,0,.882H16.441v.882H18.2a.441.441,0,1,1,0,.882H16.441v1.323a.441.441,0,1,1-.882,0V10.2H13.8a.434.434,0,0,1-.441-.441.434.434,0,0,1,.441-.441h1.764V8.441H13.8a.427.427,0,0,1-.314-.126.442.442,0,0,1,.314-.756h1.356L13.343,4.7a.4.4,0,0,1-.016-.447.419.419,0,0,1,.391-.226.442.442,0,0,1,.22.056.383.383,0,0,1,.155.154L16,7.251l1.907-3.01a.389.389,0,0,1,.155-.154.442.442,0,0,1,.22-.056.419.419,0,0,1,.392.232.412.412,0,0,1-.017.452" fill="#727981"/>
        <path id="パス_28794" data-name="パス 28794" d="M1.334,14.667V1.334H30.667V7.893a7.886,7.886,0,0,1,1.115-.087c.075,0,.145.009.218.011V1.334A1.333,1.333,0,0,0,30.667,0H1.334A1.333,1.333,0,0,0,0,1.334V14.667A1.333,1.333,0,0,0,1.334,16H23.792c0-.065-.01-.129-.01-.194a7.779,7.779,0,0,1,.092-1.139Z" fill="#727981"/>
        <path id="パス_28795" data-name="パス 28795" d="M31.783,8.805a7,7,0,1,0,7,7,7,7,0,0,0-7-7m0,13.125a6.125,6.125,0,1,1,6.125-6.125,6.132,6.132,0,0,1-6.125,6.125" fill="#727981"/>
        <path id="パス_28796" data-name="パス 28796" d="M31.783,10.308a5.5,5.5,0,1,0,5.542,5.5,5.525,5.525,0,0,0-5.542-5.5m1.86,3.2L32.377,15.5h.95a.3.3,0,0,1,.22.089.319.319,0,0,1,0,.44.3.3,0,0,1-.22.088H32.092v.618h1.235a.309.309,0,1,1,0,.617H32.092v.926a.309.309,0,1,1-.617,0v-.926H30.24a.3.3,0,0,1-.22-.089.315.315,0,0,1,0-.439.3.3,0,0,1,.22-.089h1.235v-.618H30.24a.309.309,0,1,1,0-.617h.949l-1.266-2a.281.281,0,0,1-.011-.312.292.292,0,0,1,.274-.158.309.309,0,0,1,.154.038.28.28,0,0,1,.108.108l1.335,2.107,1.335-2.107a.28.28,0,0,1,.108-.108.312.312,0,0,1,.155-.038.294.294,0,0,1,.274.162.288.288,0,0,1-.012.316" fill="#727981"/>
      </g>
    </g>
  </g>
</svg>
