<svg xmlns="http://www.w3.org/2000/svg" xmlns:xlink="http://www.w3.org/1999/xlink" width="32" height="32" viewBox="0 0 32 32">
  <defs>
    <clipPath id="clip-path">
      <rect id="長方形_8731" data-name="長方形 8731" width="21.333" height="24" fill="#96baff"/>
    </clipPath>
  </defs>
  <g id="icon_sidebar_delete" transform="translate(-632 -668)">
    <path id="パス_28883" data-name="パス 28883" d="M0,0H32V32H0Z" transform="translate(632 668)" fill="#fff" opacity="0"/>
    <g id="グループ_19278" data-name="グループ 19278" transform="translate(637 672)">
      <g id="グループ_19277" data-name="グループ 19277" clip-path="url(#clip-path)">
        <path id="パス_28702" data-name="パス 28702" d="M4,24a2.573,2.573,0,0,1-1.884-.783,2.573,2.573,0,0,1-.783-1.884V4a1.287,1.287,0,0,1-.949-.384A1.287,1.287,0,0,1,0,2.667a1.287,1.287,0,0,1,.384-.949,1.287,1.287,0,0,1,.949-.384H6.667A1.287,1.287,0,0,1,7.051.384,1.287,1.287,0,0,1,8,0h5.333a1.287,1.287,0,0,1,.949.384,1.287,1.287,0,0,1,.384.949H20a1.312,1.312,0,0,1,1.333,1.333A1.312,1.312,0,0,1,20,4V21.333A2.672,2.672,0,0,1,17.333,24Zm4-5.333a1.312,1.312,0,0,0,1.333-1.333V8a1.343,1.343,0,0,0-2.283-.949A1.287,1.287,0,0,0,6.667,8v9.333A1.312,1.312,0,0,0,8,18.667m5.333,0a1.312,1.312,0,0,0,1.333-1.333V8A1.333,1.333,0,1,0,12,8v9.333a1.312,1.312,0,0,0,1.333,1.333" fill="#96baff"/>
      </g>
    </g>
  </g>
</svg>
