<svg xmlns="http://www.w3.org/2000/svg" xmlns:xlink="http://www.w3.org/1999/xlink" width="480" height="276" viewBox="0 0 480 276">
  <defs>
    <clipPath id="clip-path">
      <rect id="長方形_3832" data-name="長方形 3832" width="128" height="120.962" fill="#727981"/>
    </clipPath>
  </defs>
  <g id="illust_scanning" transform="translate(-272 -268)">
    <g id="グループ_15942" data-name="グループ 15942" transform="translate(9.49 -12)">
      <g id="グループ_15941" data-name="グループ 15941" transform="translate(576.5 321.519)">
        <g id="グループ_12789" data-name="グループ 12789" transform="translate(-78 27)" clip-path="url(#clip-path)">
          <path id="パス_24313" data-name="パス 24313" d="M108.494,120.962a19.266,19.266,0,0,0,18.784-24.29L115.619,52.628a27.308,27.308,0,0,0,8.825-9.23,25.077,25.077,0,0,0,3.482-13.116,24.946,24.946,0,0,0-7.611-18.3,24.941,24.941,0,0,0-18.3-7.611h-57a9.183,9.183,0,0,0-8.349,4.615,9.207,9.207,0,0,0-.4,9.473L52.466,50.846A10.747,10.747,0,0,0,56.1,54.733,9.283,9.283,0,0,0,61.21,56.19H76.325l2.05,8.1H76.108a4.769,4.769,0,0,0-4.858,4.858V82.1a4.769,4.769,0,0,0,4.858,4.858h8.42l5.182,19.756A19.2,19.2,0,0,0,96.673,117a18.928,18.928,0,0,0,11.821,3.967m0-9.716a9.482,9.482,0,0,1-5.83-1.943,9.012,9.012,0,0,1-3.4-5.182L86.147,56.19h20.241l11.5,42.912a9.05,9.05,0,0,1-1.619,8.42,9.368,9.368,0,0,1-7.773,3.724m-6.477-64.772H61.21L45.017,14.088h57A16.036,16.036,0,0,1,118.21,30.281a16.036,16.036,0,0,1-16.193,16.193M23.48,15.222l2.753-5.83L5.668,0,3.077,5.991ZM5.668,60.562l20.565-9.23L23.48,45.341l-20.4,9.392Zm17-33.52H0V33.52H22.67Z" transform="translate(0 0)" fill="#727981"/>
        </g>
      </g>
      <path id="パス_24284" data-name="パス 24284" d="M6.724,14.57h8.469V46.756H6.724Zm11.95,0h7.969V46.756H18.674Zm11.956,0h3.981V46.756H30.631Zm11.95,0H50.55V46.756H42.581Zm11.95,0h11.95V46.756H54.531Zm15.938,0h3.981V46.756H70.469Zm11.956,0h11.95V46.756H82.426Z" transform="translate(371.787 350.221)" fill="#727981"/>
    </g>
    <rect id="長方形_6925" data-name="長方形 6925" width="480" height="276" transform="translate(272 268)" fill="#45494e" opacity="0"/>
  </g>
</svg>
