<svg viewBox="0 0 210.82 47.18" xmlns="http://www.w3.org/2000/svg"><path d="m0 0h210.82v47.18h-210.82z" fill="none"/><path d="m30.01 13c.61.28.97.72 1.07 1.33.11.6-.06 1.15-.51 1.65-.3.39-.7.6-1.18.65-.48.04-.97-.04-1.46-.26-.56-.24-1.15-.42-1.77-.55s-1.27-.19-1.95-.19c-1.26 0-2.39.18-3.39.55s-1.84.89-2.55 1.57c-.7.68-1.23 1.48-1.6 2.41-.36.93-.54 1.95-.54 3.07 0 1.32.2 2.46.61 3.43s.98 1.78 1.7 2.43c.73.65 1.58 1.13 2.56 1.44s2.05.47 3.2.47c.63 0 1.26-.05 1.9-.16.63-.11 1.24-.3 1.83-.58.49-.22.98-.29 1.46-.23s.88.29 1.21.68c.47.54.64 1.1.51 1.67s-.49.99-1.07 1.25c-.61.28-1.24.51-1.88.7-.64.18-1.29.32-1.95.42s-1.32.15-2 .15c-1.69 0-3.28-.25-4.79-.74-1.51-.5-2.86-1.23-4.04-2.2s-2.11-2.18-2.79-3.64-1.02-3.14-1.02-5.07c0-1.66.31-3.19.93-4.6.62-1.4 1.5-2.62 2.63-3.64 1.14-1.02 2.48-1.82 4.02-2.4 1.55-.57 3.23-.86 5.06-.86 1.03 0 2.04.11 3.02.32.98.22 1.91.53 2.77.94z" fill="#005289"/><path d="m81.16 23.22c0 1.62-.29 3.13-.88 4.53s-1.41 2.64-2.48 3.71-2.33 1.9-3.79 2.51c-1.46.6-3.06.91-4.79.91s-3.32-.3-4.78-.91c-1.45-.6-2.71-1.44-3.77-2.51-1.07-1.07-1.89-2.3-2.48-3.71-.59-1.4-.88-2.91-.88-4.53s.29-3.13.88-4.53c.58-1.4 1.41-2.64 2.48-3.71 1.06-1.07 2.32-1.9 3.77-2.51 1.45-.6 3.04-.91 4.78-.91s3.33.3 4.79.91c1.46.6 2.73 1.44 3.79 2.51s1.89 2.3 2.48 3.71c.58 1.4.88 2.91.88 4.53zm-4.57 0c0-1.45-.32-2.76-.95-3.93-.63-1.18-1.5-2.11-2.6-2.8s-2.38-1.04-3.83-1.04-2.73.35-3.83 1.04-1.96 1.62-2.58 2.78c-.62 1.17-.93 2.48-.93 3.95s.31 2.76.93 3.93c.62 1.18 1.48 2.11 2.58 2.8s2.38 1.04 3.83 1.04 2.73-.35 3.83-1.04 1.97-1.62 2.6-2.8.95-2.49.95-3.93z" fill="#005289"/><path d="m91.01 34.88c-1.54 0-2.92-.19-4.15-.56s-2.41-1.03-3.53-1.96c-.29-.23-.51-.5-.66-.8s-.23-.6-.23-.89c0-.49.18-.92.54-1.29s.82-.56 1.37-.56c.42 0 .79.13 1.12.38.83.66 1.66 1.16 2.49 1.5.82.34 1.84.51 3.05.51.81 0 1.56-.12 2.24-.37.68-.24 1.23-.57 1.65-.99.42-.41.63-.89.63-1.42 0-.64-.2-1.18-.59-1.63s-1-.82-1.81-1.13-1.85-.55-3.1-.72c-1.19-.17-2.23-.43-3.13-.78s-1.65-.8-2.26-1.34c-.6-.54-1.06-1.18-1.37-1.92-.31-.73-.46-1.56-.46-2.47 0-1.38.37-2.56 1.1-3.54.74-.98 1.73-1.72 2.98-2.23s2.64-.77 4.15-.77c1.43 0 2.75.21 3.97.62s2.21.94 2.98 1.58c.64.49.96 1.05.96 1.69 0 .47-.19.89-.56 1.28-.37.38-.81.57-1.32.57-.33 0-.63-.1-.89-.29-.35-.3-.82-.58-1.42-.85-.59-.27-1.22-.49-1.88-.67s-1.27-.27-1.85-.27c-.94 0-1.74.12-2.39.35s-1.14.55-1.47.96c-.33.4-.49.87-.49 1.4 0 .64.19 1.17.58 1.58.38.42.94.75 1.66.99s1.59.46 2.6.65c1.32.23 2.48.51 3.48.83s1.83.73 2.49 1.23 1.15 1.13 1.48 1.88c.33.76.49 1.68.49 2.76 0 1.38-.4 2.57-1.19 3.57s-1.83 1.77-3.11 2.3-2.67.8-4.17.8z" fill="#005289"/><g fill="#0074ff"><path d="m146.15 31.15c.62 0 1.14.18 1.55.54.42.36.62.83.62 1.4s-.21 1-.62 1.36c-.42.36-.93.54-1.55.54h-9.98c-.62 0-1.14-.19-1.55-.58-.42-.38-.62-.86-.62-1.43v-18.99c0-.57.21-1.05.64-1.43s.97-.58 1.64-.58c.57 0 1.08.19 1.52.58.44.38.66.86.66 1.43v17.72l-.78-.56h8.48z"/><path d="m155.69 32.99c0 .57-.23 1.05-.68 1.43s-.98.58-1.57.58c-.67 0-1.2-.19-1.61-.58-.4-.38-.61-.86-.61-1.43v-19c0-.57.21-1.05.64-1.43s.97-.58 1.64-.58c.57 0 1.08.19 1.52.58.44.38.66.86.66 1.43v19z"/><path d="m178.28 11.98c.57 0 1.03.18 1.39.53s.54.79.54 1.32v19.17c0 .57-.21 1.05-.62 1.43-.42.38-.93.58-1.55.58-.31 0-.62-.05-.95-.15-.32-.1-.57-.24-.73-.41l-14.02-16.41.93-.53v15.65c0 .53-.18.97-.55 1.32s-.85.53-1.44.53-1.03-.18-1.39-.53-.54-.79-.54-1.32v-19.17c0-.57.21-1.05.62-1.43.42-.38.93-.58 1.55-.58.33 0 .68.06 1.03.18.36.12.62.3.78.54l13.59 15.98-.61.39v-15.26c0-.53.18-.96.54-1.32.36-.35.83-.53 1.43-.53z"/><path d="m185.86 35c-.67 0-1.2-.19-1.61-.58-.4-.38-.61-.86-.61-1.43v-19c0-.57.21-1.05.64-1.43s.97-.58 1.64-.58 1.19.19 1.59.58c.39.38.59.86.59 1.43v19c0 .57-.2 1.05-.61 1.43-.4.38-.95.58-1.64.58zm15.41-23.18c.57 0 1.04.21 1.41.64s.55.86.55 1.3c0 .46-.21.89-.64 1.28l-14.95 13.18-.18-4.7 12.06-10.95c.55-.5 1.13-.76 1.75-.76zm-.43 23.18c-.67 0-1.2-.25-1.61-.76l-8.24-10 3.25-3.06 8.53 10.39c.33.42.5.87.5 1.35 0 .61-.25 1.11-.75 1.5-.5.38-1.06.58-1.68.58z"/></g><path d="m114.19 21.86h-2.53c-.41 0-.81.06-1.19.16.82 3.72 4.13 6.51 8.09 6.51h.65c.24-.56.37-1.17.37-1.82v-.19c0-.57-.11-1.11-.29-1.62h-.72c-2 0-3.71-1.27-4.37-3.05z" fill="#4eafff"/><path d="m121.81 11.77h-3.25c-3.98 0-7.31 2.82-8.1 6.57.4-.06.8-.1 1.21-.1h2.6c.71-1.67 2.37-2.85 4.29-2.85h3.25c2.57 0 4.66 2.09 4.66 4.66v.19c0 2.16-1.48 3.97-3.47 4.5.13.57.2 1.17.2 1.78v.19c0 .59-.06 1.16-.18 1.72 3.99-.59 7.07-4.03 7.07-8.18v-.19c0-4.57-3.72-8.28-8.28-8.28z" fill="#4eafff"/><path d="m113.9 20.25c0 .57.11 1.11.29 1.62h.72c2 0 3.71 1.27 4.37 3.05h2.53c.41 0 .81-.06 1.19-.16-.82-3.72-4.13-6.51-8.09-6.51h-.65c-.24.56-.37 1.17-.37 1.82v.19z" fill="#4eafff"/><path d="m119.21 28.53c-.71 1.67-2.37 2.85-4.29 2.85h-3.25c-2.57 0-4.66-2.09-4.66-4.66v-.19c0-2.16 1.48-3.97 3.47-4.5-.13-.57-.2-1.17-.2-1.78v-.19c0-.59.06-1.16.18-1.72-3.99.59-7.07 4.03-7.07 8.18v.19c0 4.57 3.72 8.28 8.28 8.28h3.25c3.98 0 7.31-2.82 8.1-6.57-.4.06-.8.1-1.21.1h-2.6z" fill="#4eafff"/><path d="m123.2 26.52c0-.61-.07-1.2-.2-1.78-.38.1-.78.16-1.19.16h-2.53c.19.5.29 1.05.29 1.62v.19c0 .64-.13 1.26-.37 1.82h2.6c.41 0 .81-.04 1.21-.1.12-.55.18-1.13.18-1.72v-.19z" fill="#0074ff"/><path d="m110.28 20.25c0 .61.07 1.2.2 1.78.38-.1.78-.16 1.19-.16h2.53c-.19-.5-.29-1.05-.29-1.62v-.19c0-.64.13-1.26.37-1.82h-2.6c-.41 0-.81.04-1.21.1-.12.55-.18 1.13-.18 1.72v.19z" fill="#0074ff"/><path d="m43.71 33.07c0-.22.05-.65.36-1.08l.7-.91h-6.71v-16.89c0-.56-.22-1.03-.65-1.41s-.93-.57-1.49-.57c-.66 0-1.19.19-1.62.57-.42.38-.63.85-.63 1.41v18.71c0 .56.2 1.03.61 1.41s.92.57 1.53.57h9.38c.06 0 .11 0 .16-.01-.43-.03-.83-.21-1.13-.52-.33-.34-.51-.79-.51-1.27z" fill="#005289"/><path d="m47.02 34.79-.06.08s.04-.06.06-.08z" fill="#005289"/><path d="m38.06 34.88v-.55h-.77z" fill="#005289"/><path d="m54.87 32.09-3.2-4.13 2.99-4.01c.13-.18.22-.39.28-.61.04-.17.05-.31.05-.39 0-.48-.18-.92-.51-1.25s-.76-.51-1.23-.51c-.54 0-1.05.25-1.39.68l-2.45 3.22-2.4-3.1c-.33-.44-.85-.7-1.44-.7-.97 0-1.77.8-1.77 1.77 0 .54.23.92.37 1.09l3.01 3.87-2.42 3.14h.42c.61 0 1.12.18 1.53.53.41.36.61.81.61 1.38 0 .39-.11.72-.32 1.01l2.46-3.24 2.69 3.39c.32.41.81.65 1.33.65.47 0 .91-.19 1.24-.53.31-.33.48-.76.48-1.21 0-.27-.06-.67-.35-1.05z" fill="#4eafff"/><path d="m45.36 34.86s.08.01.13.01c.55 0 1.06-.25 1.4-.69l.07-.09c-.07.09-.14.17-.23.25-.37.32-.83.49-1.36.52z" fill="#0074ff"/><path d="m46.72 31.64c-.41-.36-.92-.53-1.53-.53h-.42l-.7.91c-.32.42-.36.86-.36 1.08 0 .48.18.94.51 1.27.3.31.7.49 1.13.52.53-.03.99-.2 1.36-.52.09-.08.16-.16.23-.25l.06-.08c.21-.29.32-.63.32-1.01 0-.56-.21-1.02-.61-1.38z" fill="#0074ff"/></svg>